<?xml version="1.0" encoding="UTF-8"?>
<svg id="Layer_2" data-name="Layer 2" xmlns="http://www.w3.org/2000/svg" viewBox="0 0 537.12 186.61">
  <defs>
    <style>
      .cls-1 {
        fill: #143755;
      }

      .cls-2 {
        fill: #f1ae2c;
      }
    </style>
  </defs>
  <g id="Layer_1-2" data-name="Layer 1">
    <path class="cls-2" d="M47.37,55.1c-.9-9.75-8.39-18.81-17.55-21.94C34.8,15.27,51.35,1.64,69.99.51c26.67-1.61,54.96,1.24,81.79.02,18.5,1.67,34.26,14.66,39.5,32.45-.05-.16-6.89,3.85-7.48,4.29-2.3,1.72-4.2,3.76-5.78,6.15-4.93,7.48-4.3,15.62-4.3,24.14H47.37c-.27-4.02.37-8.49,0-12.46Z"/>
    <g>
      <path d="M72.27,179.01c-.69.27-1.43.45-2.22.52.28-.05.55-.1.83-.16.49-.1.95-.22,1.39-.36Z"/>
      <path class="cls-2" d="M216.9,46.68c-11.38-15.38-37.21-6.82-37.21,11.93v15.97H41.4v-15.97c0-18.75-25.83-27.31-37.2-11.93-10.58,14.3.12,33.81,17.55,33.17.07,9.82-1.77,20.09,7.96,25.9,1.3.77,5.25,2.53,6.6,2.53h5.79s.03,1.68.03,1.77c0,9.81-.18,19.62-.04,29.43s.03,19.28,2.09,28.49c.38,1.72.87,3.41,1.5,5.05,2.46,6.41,8.05,12.35,15.08,13.42s13.49-3.37,16.41-9.65c2.51-5.4,3.02-11.61,2.95-17.5-.08-7.59-.17-15.17-.25-22.76-.02-1.5-.03-3.03.4-4.47s1.38-2.8,2.78-3.35c-2.2,0-4.41,0-6.61,0,1.27.45,2.16,1.65,2.58,2.93s.43,2.66.44,4.01c.07,8.1.14,16.2.21,24.3.05,5.8-.05,12.08-4.32,16.53-3.11,3.24-7.76,3.61-11.39,1-5.29-3.8-6.32-11.25-6.78-17.26s-.77-12.54-1.11-18.81c-.37-6.82-.66-13.67-.49-20.5.07-2.85-.57-10.02,1.88-12.22.25-.22.45-.43.81-.43h104.59v71.5h14.54c.39,0,.77-.01,1.14-.03,0-.16.02-.32.02-.49.5-11.42.52-33.46.47-49.97.01-.17.01-.34,0-.51-.02-11.36-.08-19.98-.02-20.5h5.79c1.34,0,5.32-1.76,6.6-2.53,9.73-5.85,7.9-16.03,7.96-25.9,17.43.64,28.14-18.87,17.56-33.17ZM73.59,178.36c-.13.08-.25.14-.37.2.07-.03.13-.07.19-.11.06-.02.12-.05.18-.09Z"/>
      <path class="cls-2" d="M73.59,178.36c-.13.08-.25.14-.37.2.07-.03.13-.07.19-.11.06-.02.12-.05.18-.09Z"/>
      <path class="cls-2" d="M73.59,178.36c-.13.08-.25.14-.37.2.07-.03.13-.07.19-.11.06-.02.12-.05.18-.09Z"/>
      <path class="cls-2" d="M110.38,175.05v-20.8l14.42-25.54h-4.8c2.77,0,1.87,3.91.97,5.56l-10.96,19.38-12.02-19.76c-.38-1.27-.98-5.18.9-5.18h-15.02c3.98.45,5.63,3.68,7.36,6.24l11.72,19.3v20.8c0,2.1-1.58,4.28-3.16,4.73h13.75c-1.66-.45-3.16-2.7-3.16-4.73Z"/>
      <path class="cls-2" d="M146.06,179.78h14.04c-2.4,0-4.5-3.3-5.26-5.03l-17.57-46.04h-7.44l2.33,5.94-14.12,45.13h3.83c-2.47,0-2.1-3.83-1.65-5.56l2.48-7.96h21.55l2.86,7.59c.45,1.2,1.8,5.93-1.05,5.93ZM122.85,165.89l9.54-30.57,11.64,30.57h-21.18Z"/>
      <path class="cls-2" d="M180.52,179.75c0-.16.02-.32.02-.49,17.37-1.94,17.59-47.27.47-49.97.01-.17.01-.34,0-.51,26.89,1.84,26.59,49.67-.49,50.97Z"/>
      <path class="cls-1" d="M238.81,154.02h-12.69v-24.86h8.94c8.03,0,12.69,6.09,14.12,11.49-.31-3.98-.61-7.96-.83-11.94h-32.82c1.65.45,3.15,2.71,3.15,4.73v41.61c0,2.03-1.5,4.28-3.15,4.73h10.59v-25.31h12.69c5.41,0,6.84,3.38,7.59,6.01v-12.47c-.75,2.63-2.18,6.01-7.59,6.01Z"/>
      <path class="cls-1" d="M283.27,128.71c1.58.45,3.16,2.71,3.16,4.73v31.7c0,6.31-.68,14.49-13.52,14.19-7.81,0-11.64-8.41-11.64-14.79v-31.1c0-2.02,1.57-4.28,3.15-4.73h-13.74c1.65.45,3.15,2.71,3.15,4.73v31.1c0,10.81,9.16,15.24,19.08,15.24s13.97-3.9,13.97-14.64v-31.7c0-2.02,1.57-4.28,3.15-4.73h-6.76Z"/>
      <path class="cls-1" d="M318.57,179.78h11.11l-13.29-26.06c6.01-1.35,10.44-4.66,10.52-12.17,0-3.38-1.58-12.84-18.85-12.84h-16.53c1.65.45,3.16,2.71,3.16,4.73v41.61c0,2.03-1.51,4.28-3.16,4.73h10.59v-25.31h7.51l10.52,21.03c.75,1.88-.08,3.91-1.58,4.28ZM308.06,154.02h-5.94v-24.86h5.94c8.18,0,11.41,5.56,11.41,12.39s-3.23,12.47-11.41,12.47Z"/>
      <path class="cls-1" d="M363.78,128.71c1.58.45,3.16,2.71,3.16,4.73v34.78l-25.16-39.51h-7.44v46.34c0,2.03-1.5,4.28-3.15,4.73h6.83c-1.65-.45-3.23-2.7-3.23-4.73v-45.66l32.15,50.39h.45v-46.34c0-2.02,1.58-4.28,3.15-4.73h-6.76Z"/>
      <path class="cls-1" d="M382.63,175.05v-41.61c0-2.02,1.58-4.28,3.16-4.73h-13.75c1.66.45,3.16,2.71,3.16,4.73v41.61c0,2.03-1.5,4.28-3.16,4.73h13.75c-1.58-.45-3.16-2.7-3.16-4.73Z"/>
      <path class="cls-1" d="M420.86,129.16v-.45h-32.97v.45l-.6,8.86c1.13-4.2,5.03-8.86,9.31-8.86h4.06v45.89c0,2.03-1.58,4.28-3.16,4.73h13.75c-1.58-.45-3.16-2.7-3.16-4.73v-45.89h4.06c4.28,0,8.19,4.66,9.31,8.86l-.6-8.86Z"/>
      <path class="cls-1" d="M455.56,128.71c1.58.45,3.15,2.71,3.15,4.73v31.7c0,6.31-.67,14.49-13.52,14.19-7.81,0-11.64-8.41-11.64-14.79v-31.1c0-2.02,1.58-4.28,3.16-4.73h-13.75c1.66.45,3.16,2.71,3.16,4.73v31.1c0,10.81,9.16,15.24,19.07,15.24s13.97-3.9,13.97-14.64v-31.7c0-2.02,1.58-4.28,3.16-4.73h-6.76Z"/>
      <path class="cls-1" d="M490.86,179.78h11.11l-13.29-26.06c6.01-1.35,10.44-4.66,10.51-12.17,0-3.38-1.57-12.84-18.85-12.84h-16.52c1.65.45,3.16,2.71,3.16,4.73v41.61c0,2.03-1.51,4.28-3.16,4.73h10.59v-25.31h7.51l10.52,21.03c.75,1.88-.08,3.91-1.58,4.28ZM480.34,154.02h-5.93v-24.86h5.93c8.19,0,11.42,5.56,11.42,12.39s-3.23,12.47-11.42,12.47Z"/>
      <path class="cls-1" d="M523,179.33h-8.93v-24.86h12.69c5.41,0,6.83,3.38,7.58,6.01v-12.47c-.75,2.63-2.17,6.01-7.58,6.01h-12.69v-24.86h8.93c8.04,0,12.7,6.09,14.12,11.49l-.82-11.94h-32.82c1.65.45,3.15,2.71,3.15,4.73v41.61c0,2.03-1.5,4.28-3.15,4.73h32.82c.3-3.98.52-7.96.82-11.94-1.42,5.41-6.08,11.49-14.12,11.49Z"/>
    </g>
  </g>
</svg>