<?xml version="1.0" encoding="UTF-8"?>
<svg id="Layer_1" xmlns="http://www.w3.org/2000/svg" version="1.1" viewBox="0 0 177 50">
  <!-- Generator: Adobe Illustrator 30.1.0, SVG Export Plug-In . SVG Version: 2.1.1 Build 136)  -->
  <defs>
    <style>
      .st0 {
        fill: none;
        stroke: #000;
        stroke-miterlimit: 10;
      }

      .st1 {
        fill: #7d431d;
      }

      .st2 {
        fill: #f9cc89;
      }
    </style>
  </defs>
  <path class="st0" d="M26.51,16.78s-.02.02-.03.04"/>
  <path class="st0" d="M47.98,23.1s-.01-.06-.02-.09"/>
  <polygon class="st2" points="33.87 15.45 40.24 15.45 36.44 10.75 30 10.75 33.87 15.45"/>
  <path class="st1" d="M37.35,46.56c-.18.05-.36.05-.53,0-.37-.09-.68-.38-.78-.78l-.89-2.52c.71-.15,1.4-.35,2.07-.59l.91,2.58c.15.58-.2,1.16-.78,1.31Z"/>
  <path class="st1" d="M23.79,45.56c-.16-.1-.28-.23-.37-.38-.19-.33-.19-.76.02-1.11l1.21-2.39c.6.41,1.22.77,1.86,1.09l-1.24,2.44c-.31.51-.98.66-1.48.34Z"/>
  <path class="st1" d="M42.82,48.76c-.17.09-.35.14-.52.14-.38,0-.74-.2-.94-.55l-3.29-5.9s-.03-.06-.05-.09c.67-.28,1.31-.6,1.93-.95l3.29,5.89c.29.52.1,1.18-.42,1.46Z"/>
  <path class="st1" d="M23.69,41.07c-.02.18-.1.36-.22.51l-4.74,5.93c-.25.32-.64.46-1.01.4-.18-.03-.35-.1-.5-.22-.47-.36-.55-1.04-.19-1.51l4.74-5.93c.07-.09.16-.17.25-.24.53.38,1.09.73,1.66,1.05Z"/>
  <path class="st1" d="M48,28.59c-.19,1.14-.52,2.37-1.07,3.63-4.02,9.28-16.5,12.4-24.49,6.32-4.96-3.78-7.18-10.14-6.07-16.23.39-2.14,1.18-4.21,2.38-6.04.33-.5,3.55-4.49,3.97-3.98l3.77,4.53c-.83.85-3.91,2.86-3.96,8.78,0,.56.25,7.58,6.12,9.84,3.58,1.38,7.34.45,10.11-1.92,1.53-1.32,2.16-3.52,2.46-4.93h-5.12l-4.91-5.7c9.34.12,14.24.18,16.81.21.18,1.04.43,3.05.02,5.49Z"/>
  <path class="st2" d="M47.7,41.04l-1.87-2.04c4.16-3.82,6.55-9.25,6.55-14.9,0-11.16-9.08-20.23-20.23-20.23S11.9,12.94,11.9,24.1c0,4.94,1.8,9.7,5.07,13.4l-2.07,1.83c-3.72-4.2-5.76-9.61-5.76-15.23C9.13,11.42,19.45,1.1,32.14,1.1s23,10.32,23,23c0,6.42-2.71,12.59-7.44,16.94Z"/>
  <path class="st1" d="M67.95,13.73c1.51.32,2.93.9,4.08,2.09l-1.6,2.27c-1.09-1.08-2.4-1.7-3.87-1.65-1.81.06-3.36,1.18-4,2.74-.71,1.74-.33,3.68,1.02,4.95,1.5,1.41,3.8,1.7,5.59.73.87-.47,1.42-1.25,1.56-2.18h-3.76s0-2.61,0-2.61h6.81c.45,3.55-1.33,6.91-4.9,7.88-.75.2-1.42.27-2.2.27-3.69.01-6.85-2.65-7.31-6.33-.02-.16-.03-.31-.07-.39v-1.1c.34-3.46,2.82-6.09,6.2-6.67h2.43Z"/>
  <path class="st1" d="M93.25,13.93l6.62,14.26h-3.08s-.95-2.02-.95-2.02h-5.64s-.91,2.02-.91,2.02h-3.05s6.54-14.26,6.54-14.26h.47ZM94.73,23.7l-1.71-3.73-1.7,3.74h3.4Z"/>
  <polygon class="st1" points="137.34 14.36 137.34 14.61 133.2 22.24 133.19 28.4 130.41 28.41 130.41 22.29 126.09 14.37 129.17 14.36 131.8 19.2 134.41 14.36 137.34 14.36"/>
  <path class="st2" d="M120.58,35.72h-1.41c-.94-.26-1.68-.95-1.69-2v-4s1.13.01,1.13.01v3.88c0,.73.56,1.19,1.27,1.18s1.28-.43,1.28-1.17l.02-3.9h1.14s-.03,4.03-.03,4.03c0,1.06-.77,1.73-1.71,1.98Z"/>
  <path class="st2" d="M94.66,35.87h-1.49c-.94-.28-1.67-.98-1.67-2.05v-3.95s1.12,0,1.12,0v3.88c.01.73.57,1.17,1.26,1.18s1.3-.39,1.3-1.12l.02-3.94h1.14s-.02,4.03-.02,4.03c0,1.04-.75,1.68-1.65,1.97Z"/>
  <path class="st1" d="M86.29,28.06l-3.41.03-4.48-6.69-.02,6.68h-2.78s0-14.04,0-14.04h4.86c.66,0,1.27.17,1.86.41,2.5,1.1,3.41,4.15,1.91,6.42-.46.7-1.09,1.19-1.9,1.51l3.96,5.68ZM80.54,20.19c.99-.12,1.58-.98,1.51-1.86s-.76-1.57-1.69-1.57h-1.97s0,3.46,0,3.46c.71,0,1.42.05,2.15-.03Z"/>
  <path class="st1" d="M107.01,14.12h3.03s-6.42,13.97-6.42,13.97c-.05.11-.09.19-.14.22-.07.03-.23-.05-.29-.12l-6.44-14.07h3.04s3.61,7.92,3.61,7.92l3.62-7.92Z"/>
  <polygon class="st1" points="122.03 28.25 119.26 28.25 119.26 16.92 115.62 16.91 115.63 14.21 125.69 14.21 125.69 16.91 122.03 16.92 122.03 28.25"/>
  <polygon class="st1" points="114.14 28.13 111.38 28.15 111.38 14.11 114.14 14.11 114.14 28.13"/>
  <polygon class="st2" points="108.02 35.63 106.85 35.64 104.43 31.7 104.41 35.64 103.27 35.64 103.27 29.71 104.45 29.71 106.86 33.62 106.88 29.72 108.02 29.71 108.02 35.63"/>
  <path class="st2" d="M126.94,35.66l-1.08-2.33-1.33-.02-.02,2.34h-1.15s0-5.93,0-5.93c1,0,1.96-.02,2.93.02s1.68.85,1.63,1.8c-.03.68-.34,1.23-.97,1.53l1.22,2.57-1.24.02ZM126.04,32.35c.57-.01.8-.57.75-.99-.06-.46-.45-.71-.95-.7h-1.33s.01,1.73.01,1.73l1.52-.03Z"/>
  <path class="st2" d="M101.11,35.65l-1.08-2.34h-1.34s-.02,2.33-.02,2.33h-1.13s0-5.93,0-5.93l2.91.03c1.02,0,1.72.84,1.65,1.81-.03.67-.37,1.22-.98,1.51l1.22,2.56-1.24.03ZM100.96,31.44c-.02-.48-.36-.77-.8-.77h-1.48s0,1.71,0,1.71l1.47-.02c.5,0,.83-.41.8-.92Z"/>
  <polygon class="st2" points="133.15 33.01 130.52 33.02 130.51 34.7 133.55 34.71 133.55 35.64 129.36 35.64 129.36 29.72 133.45 29.71 133.46 30.66 130.52 30.67 130.52 32.06 133.14 32.07 133.15 33.01"/>
  <polygon class="st2" points="90.22 32.24 90.23 33.2 87.67 33.21 87.67 35.79 86.52 35.8 86.52 29.87 90.56 29.87 90.56 30.81 87.67 30.82 87.68 32.24 90.22 32.24"/>
  <polygon class="st2" points="114.59 35.63 113.43 35.64 113.43 30.68 111.62 30.66 111.62 29.71 116.4 29.71 116.41 30.66 114.59 30.67 114.59 35.63"/>
  <polygon class="st2" points="110.41 35.79 109.26 35.79 109.27 29.87 110.4 29.87 110.41 35.79"/>
</svg>