<?xml version="1.0" encoding="UTF-8"?>
<svg id="Layer_2" data-name="Layer 2" xmlns="http://www.w3.org/2000/svg" viewBox="0 0 342.65 119.04">
  <defs>
    <style>
      .cls-1 {
        fill: #143755;
      }

      .cls-2 {
        fill: #f1ae2c;
      }
    </style>
  </defs>
  <g id="Layer_1-2" data-name="Layer 1">
    <path class="cls-2" d="M30.22,35.15c-.57-6.22-5.35-12-11.2-14C22.2,9.74,32.76,1.04,44.65.32c17.01-1.03,35.06.79,52.18.01,11.8,1.07,21.86,9.35,25.2,20.7-.03-.1-4.4,2.46-4.77,2.74-1.47,1.1-2.68,2.4-3.69,3.92-3.15,4.77-2.75,9.96-2.75,15.4H30.22c-.17-2.57.23-5.42,0-7.95Z"/>
    <g>
      <path d="M46.11,114.2c-.44.17-.91.29-1.42.33.18-.03.35-.06.53-.1.31-.06.61-.14.89-.23Z"/>
      <path class="cls-2" d="M138.37,29.78c-7.26-9.81-23.74-4.35-23.74,7.61v10.19H26.41v-10.19c0-11.96-16.48-17.42-23.73-7.61-6.75,9.12.08,21.57,11.2,21.16.04,6.26-1.13,12.82,5.08,16.52.83.49,3.35,1.61,4.21,1.61h3.69s.02,1.07.02,1.13c0,6.26-.12,12.52-.03,18.77s.02,12.3,1.33,18.18c.24,1.09.56,2.17.96,3.22,1.57,4.09,5.14,7.88,9.62,8.56s8.61-2.15,10.47-6.15c1.6-3.45,1.92-7.41,1.88-11.16-.05-4.84-.11-9.68-.16-14.52-.01-.96-.02-1.93.26-2.85s.88-1.79,1.77-2.14c-1.41,0-2.81,0-4.22,0,.81.29,1.38,1.05,1.65,1.87s.28,1.69.28,2.56c.04,5.17.09,10.34.13,15.5.03,3.7-.03,7.71-2.76,10.55-1.98,2.07-4.95,2.3-7.27.64-3.38-2.42-4.03-7.18-4.33-11.01s-.49-8-.71-12c-.24-4.35-.42-8.72-.32-13.08.04-1.82-.36-6.39,1.2-7.8.16-.14.29-.27.52-.27h66.72v45.61h9.28c.25,0,.49,0,.73-.02,0-.1.01-.2.01-.31.32-7.29.33-21.35.3-31.88,0-.11,0-.22,0-.33-.01-7.25-.05-12.75-.01-13.08h3.69c.85,0,3.39-1.12,4.21-1.61,6.21-3.73,5.04-10.23,5.08-16.52,11.12.41,17.95-12.04,11.2-21.16ZM46.95,113.78c-.08.05-.16.09-.24.13.04-.02.08-.04.12-.07.04-.01.08-.03.11-.06Z"/>
      <path class="cls-2" d="M46.95,113.78c-.08.05-.16.09-.24.13.04-.02.08-.04.12-.07.04-.01.08-.03.11-.06Z"/>
      <path class="cls-2" d="M46.95,113.78c-.08.05-.16.09-.24.13.04-.02.08-.04.12-.07.04-.01.08-.03.11-.06Z"/>
      <path class="cls-2" d="M70.42,111.67v-13.27l9.2-16.29h-3.06c1.77,0,1.19,2.49.62,3.55l-6.99,12.36-7.67-12.61c-.24-.81-.63-3.3.57-3.3h-9.58c2.54.29,3.59,2.35,4.7,3.98l7.48,12.31v13.27c0,1.34-1.01,2.73-2.02,3.02h8.77c-1.06-.29-2.02-1.72-2.02-3.02Z"/>
      <path class="cls-2" d="M93.18,114.69h8.96c-1.53,0-2.87-2.11-3.36-3.21l-11.21-29.37h-4.75l1.49,3.79-9.01,28.79h2.44c-1.58,0-1.34-2.44-1.05-3.55l1.58-5.08h13.75l1.82,4.84c.29.77,1.15,3.78-.67,3.78ZM78.37,105.83l6.09-19.5,7.43,19.5h-13.51Z"/>
      <path class="cls-2" d="M115.16,114.67c0-.1.01-.2.01-.31,11.08-1.24,11.22-30.16.3-31.88,0-.11,0-.22,0-.33,17.15,1.17,16.96,31.69-.31,32.52Z"/>
      <path class="cls-1" d="M152.35,98.25h-8.1v-15.86h5.7c5.12,0,8.1,3.89,9.01,7.33-.2-2.54-.39-5.08-.53-7.62h-20.94c1.05.29,2.01,1.73,2.01,3.02v26.54c0,1.29-.96,2.73-2.01,3.02h6.76v-16.15h8.1c3.45,0,4.36,2.16,4.84,3.83v-7.96c-.48,1.68-1.39,3.83-4.84,3.83Z"/>
      <path class="cls-1" d="M180.71,82.11c1.01.29,2.02,1.73,2.02,3.02v20.22c0,4.03-.43,9.24-8.62,9.05-4.98,0-7.43-5.37-7.43-9.44v-19.84c0-1.29,1-2.73,2.01-3.02h-8.77c1.05.29,2.01,1.73,2.01,3.02v19.84c0,6.9,5.84,9.72,12.17,9.72s8.91-2.49,8.91-9.34v-20.22c0-1.29,1-2.73,2.01-3.02h-4.31Z"/>
      <path class="cls-1" d="M203.23,114.69h7.09l-8.48-16.62c3.83-.86,6.66-2.97,6.71-7.76,0-2.16-1.01-8.19-12.03-8.19h-10.55c1.05.29,2.02,1.73,2.02,3.02v26.54c0,1.29-.96,2.73-2.02,3.02h6.76v-16.15h4.79l6.71,13.42c.48,1.2-.05,2.49-1.01,2.73ZM196.52,98.25h-3.79v-15.86h3.79c5.22,0,7.28,3.55,7.28,7.9s-2.06,7.96-7.28,7.96Z"/>
      <path class="cls-1" d="M232.07,82.11c1.01.29,2.02,1.73,2.02,3.02v22.19l-16.05-25.2h-4.75v29.56c0,1.29-.96,2.73-2.01,3.02h4.36c-1.05-.29-2.06-1.72-2.06-3.02v-29.13l20.51,32.15h.29v-29.56c0-1.29,1.01-2.73,2.01-3.02h-4.31Z"/>
      <path class="cls-1" d="M244.1,111.67v-26.54c0-1.29,1.01-2.73,2.02-3.02h-8.77c1.06.29,2.02,1.73,2.02,3.02v26.54c0,1.29-.96,2.73-2.02,3.02h8.77c-1.01-.29-2.02-1.72-2.02-3.02Z"/>
      <path class="cls-1" d="M268.48,82.4v-.29h-21.03v.29l-.38,5.65c.72-2.68,3.21-5.65,5.94-5.65h2.59v29.27c0,1.29-1.01,2.73-2.02,3.02h8.77c-1.01-.29-2.02-1.72-2.02-3.02v-29.27h2.59c2.73,0,5.22,2.97,5.94,5.65l-.38-5.65Z"/>
      <path class="cls-1" d="M290.62,82.11c1.01.29,2.01,1.73,2.01,3.02v20.22c0,4.03-.43,9.24-8.62,9.05-4.98,0-7.43-5.37-7.43-9.44v-19.84c0-1.29,1.01-2.73,2.02-3.02h-8.77c1.06.29,2.02,1.73,2.02,3.02v19.84c0,6.9,5.84,9.72,12.17,9.72s8.91-2.49,8.91-9.34v-20.22c0-1.29,1.01-2.73,2.02-3.02h-4.31Z"/>
      <path class="cls-1" d="M313.14,114.69h7.09l-8.48-16.62c3.83-.86,6.66-2.97,6.7-7.76,0-2.16-1-8.19-12.03-8.19h-10.54c1.05.29,2.02,1.73,2.02,3.02v26.54c0,1.29-.96,2.73-2.02,3.02h6.76v-16.15h4.79l6.71,13.42c.48,1.2-.05,2.49-1.01,2.73ZM306.43,98.25h-3.78v-15.86h3.78c5.22,0,7.29,3.55,7.29,7.9s-2.06,7.96-7.29,7.96Z"/>
      <path class="cls-1" d="M333.64,114.4h-5.7v-15.86h8.1c3.45,0,4.36,2.16,4.84,3.83v-7.96c-.48,1.68-1.38,3.83-4.84,3.83h-8.1v-15.86h5.7c5.13,0,8.1,3.89,9.01,7.33l-.52-7.62h-20.94c1.05.29,2.01,1.73,2.01,3.02v26.54c0,1.29-.96,2.73-2.01,3.02h20.94c.19-2.54.33-5.08.52-7.62-.91,3.45-3.88,7.33-9.01,7.33Z"/>
    </g>
  </g>
</svg>