<?xml version="1.0" encoding="UTF-8"?>
<svg id="Layer_2" data-name="Layer 2" xmlns="http://www.w3.org/2000/svg" viewBox="0 0 361.57 129.99">
  <defs>
    <style>
      .cls-1 {
        fill: #143755;
      }
    </style>
  </defs>
  <g id="Layer_1-2" data-name="Layer 1">
    <path class="cls-1" d="M35.64,41.46c-.68-7.34-6.31-14.15-13.2-16.51C26.18,11.49,38.63,1.23,52.66.38c20.06-1.21,41.35.93,61.54.02,13.92,1.26,25.78,11.03,29.72,24.41-.03-.12-5.18,2.9-5.63,3.23-1.73,1.3-3.16,2.83-4.35,4.63-3.71,5.62-3.24,11.75-3.24,18.17H35.64c-.2-3.03.28-6.39,0-9.37Z"/>
    <path class="cls-1" d="M64.16,46.75c-.44.17-.91.29-1.42.33.18-.03.35-.06.53-.1.31-.06.61-.14.89-.23Z"/>
    <path class="cls-1" d="M65,46.34c-.08.05-.16.09-.24.13.04-.02.08-.04.12-.07.04-.01.08-.03.11-.06Z"/>
    <path class="cls-1" d="M65,46.34c-.08.05-.16.09-.24.13.04-.02.08-.04.12-.07.04-.01.08-.03.11-.06Z"/>
    <g>
      <polygon class="cls-1" points="92.2 98.88 80.26 119.74 80.26 129.53 72.02 129.53 72.02 119.66 60.22 98.88 70.65 98.88 73.62 105.65 76.32 112.7 79.02 105.65 82.04 98.88 92.2 98.88"/>
      <polygon class="cls-1" points="121.24 129.53 112.23 129.53 110.35 123.81 108.09 116.95 106.61 112.47 104.55 104.78 102.49 112.47 101.01 116.95 98.75 123.81 96.86 129.53 88.08 129.53 98.92 98.88 110.4 98.88 121.24 129.53"/>
      <path class="cls-1" d="M155.55,114.21c0,2.92-.61,5.54-1.83,7.86-1.22,2.32-2.94,4.14-5.17,5.47-2.22,1.33-4.84,1.99-7.86,1.99h-4.95v-7.32h4.49c1.61,0,2.9-.35,3.86-1.05s1.67-1.66,2.11-2.88c.44-1.22.66-2.58.66-4.07s-.23-2.89-.68-4.1c-.46-1.2-1.19-2.16-2.18-2.86-.99-.7-2.29-1.05-3.91-1.05h-4.35v-7.32h4.81c3.02,0,5.66.66,7.91,1.99,2.26,1.33,4,3.14,5.24,5.44,1.23,2.31,1.85,4.94,1.85,7.9Z"/>
      <path class="cls-1" d="M149.98,60.07c-.05,7.43,1.33,15.09-5.99,19.48-.96.58-3.95,1.91-4.97,1.91h-8.59v48.07h-8.42v-48.07H40.8v17.42h.03v16.88c0,2.17.47,3.74,1.41,4.73.95,1,2.32,1.49,4.12,1.49s3.25-.49,4.16-1.49c.92-.99,1.38-2.56,1.38-4.73v-16.88h8.23v16.79c0,4.97-1.16,8.6-3.48,10.88-2.31,2.29-5.76,3.44-10.33,3.44s-7.86-1.15-10.2-3.44c-2.35-2.28-3.53-5.91-3.53-10.88v-34.21h-5.27c-1.01,0-3.98-1.33-4.96-1.91-7.32-4.36-5.93-12.08-5.99-19.48-13.12.48-21.16-14.2-13.21-24.95,8.56-11.57,28-5.14,28,8.97v12.02h104.04v-12.02c0-14.11,19.43-20.54,27.99-8.97,7.96,10.75-.09,25.43-13.21,24.95Z"/>
      <path class="cls-1" d="M169.27,111.55v7.32h12.72v-7.32h-12.72Z"/>
      <polygon class="cls-1" points="184.27 98.88 184.27 106.2 169.27 106.2 169.27 111.55 163.92 111.55 163.92 118.87 169.27 118.87 169.27 129.53 161.04 129.53 161.04 98.88 184.27 98.88"/>
      <path class="cls-1" d="M200.19,119.24c0,1.22-.08,2.15-.25,2.81-.17.66-.46,1.11-.89,1.35-.43.24-1.04.36-1.83.36-1.22,0-2.02-.35-2.4-1.07-.38-.72-.57-1.76-.57-3.13v-12.63h-8.24v15.83c0,1.52.28,2.83.83,3.91.54,1.08,1.32,1.91,2.33,2.47s2.21.85,3.61.85c1.71,0,3.09-.4,4.14-1.19,1.05-.8,1.85-1.81,2.38-3.05.41-.94.71-1.93.89-2.96.06-.31.11-.63.14-.95l-.14-2.6ZM200.19,106.93v22.6h8.24v-22.6h-8.24Z"/>
      <path class="cls-1" d="M212.09,106.93v22.6h8.23v-22.6h-8.23ZM231.96,108.17c-.81-1.13-2.2-1.7-4.18-1.7-1.26,0-2.34.28-3.25.83-.92.55-1.67,1.27-2.27,2.17-.59.9-1.06,1.88-1.39,2.93-.24.73-.42,1.47-.55,2.19-.06.32-.1.63-.14.94l.14,2.61c0-1.22.17-2.23.5-3.04.34-.81.79-1.41,1.35-1.81.57-.4,1.15-.59,1.76-.59.67,0,1.15.19,1.44.59.29.4.44.92.44,1.55,0,.68-.18,1.4-.55,2.18-.37.78-.76,1.41-1.19,1.9h7.55c.33-.58.68-1.42,1.03-2.52.35-1.1.52-2.33.52-3.7,0-1.9-.4-3.4-1.21-4.53Z"/>
      <path class="cls-1" d="M234.96,106.93v22.6h8.23v-22.6h-8.23ZM255.56,108.35c-1.2-1.25-2.85-1.88-4.96-1.88-1.71,0-3.09.39-4.14,1.17-1.05.78-1.84,1.79-2.38,3.04-.41.96-.7,1.95-.89,2.99-.06.31-.1.63-.14.95l.14,2.6c0-1.22.08-2.15.25-2.81.17-.66.47-1.1.89-1.35.43-.24,1.04-.36,1.83-.36,1.25,0,2.06.35,2.43,1.07.36.72.55,1.76.55,3.13v12.63h8.23v-15.83c0-2.32-.6-4.1-1.81-5.35Z"/>
      <path class="cls-1" d="M260.89,98.88v5.99h8.24v-5.99h-8.24ZM260.89,106.93v22.6h8.24v-22.6h-8.24Z"/>
      <path class="cls-1" d="M279.96,106.93v6.22h8.38v-6.22h-8.38ZM271.41,113.15h3.2v-6.22h-3.2v6.22ZM287.42,120.97c-.36.58-.81,1.04-1.35,1.38-.53.33-1.06.5-1.57.5s-.93-.15-1.22-.46c-.29-.3-.43-.74-.43-1.32v-7.92h-8.24v9.1c0,1.47.26,2.78.78,3.94.52,1.16,1.37,2.08,2.54,2.77,1.17.68,2.74,1.03,4.69,1.03,1.83,0,3.34-.34,4.53-1.01,1.19-.67,2.03-1.28,2.51-1.83l-2.24-6.18ZM282.85,100.71l-8.24,3.66v2.56h8.24v-6.22Z"/>
      <path class="cls-1" d="M305.17,119.24c0,1.22-.08,2.15-.25,2.81-.17.66-.47,1.11-.89,1.35-.43.24-1.04.36-1.83.36-1.22,0-2.02-.35-2.4-1.07-.39-.72-.58-1.76-.58-3.13v-12.63h-8.23v15.83c0,1.52.27,2.83.82,3.91s1.33,1.91,2.34,2.47c1,.56,2.21.85,3.61.85,1.71,0,3.09-.4,4.14-1.19,1.05-.8,1.84-1.81,2.38-3.05.41-.94.7-1.93.89-2.96.06-.31.1-.63.14-.95l-.14-2.6ZM305.17,106.93v22.6h8.23v-22.6h-8.23Z"/>
      <path class="cls-1" d="M317.06,106.93v22.6h8.24v-22.6h-8.24ZM336.94,108.17c-.81-1.13-2.21-1.7-4.19-1.7-1.25,0-2.33.28-3.25.83-.91.55-1.67,1.27-2.26,2.17-.59.9-1.06,1.88-1.4,2.93-.23.73-.41,1.47-.54,2.19-.06.32-.1.63-.14.94l.14,2.61c0-1.22.16-2.23.5-3.04.33-.81.78-1.41,1.35-1.81.56-.4,1.15-.59,1.76-.59.67,0,1.15.19,1.44.59.29.4.44.92.44,1.55,0,.68-.19,1.4-.55,2.18-.37.78-.77,1.41-1.19,1.9h7.54c.34-.58.68-1.42,1.03-2.52.35-1.1.53-2.33.53-3.7,0-1.9-.4-3.4-1.21-4.53Z"/>
      <path class="cls-1" d="M360.4,111.92c-.77-1.62-1.97-2.93-3.59-3.94-1.61-1-3.72-1.51-6.31-1.51-2.29,0-4.28.51-5.97,1.51-1.69,1.01-3,2.4-3.93,4.17-.93,1.77-1.4,3.79-1.4,6.08s.47,4.32,1.4,6.08c.93,1.77,2.29,3.16,4.09,4.17,1.8,1,4,1.51,6.59,1.51s4.67-.46,6.24-1.38c1.57-.91,2.78-1.93,3.64-3.06l-4.99-4.76c-.27.64-.65,1.15-1.12,1.53-.47.39-1,.66-1.6.83-.59.17-1.27.25-2.03.25-.89,0-1.69-.14-2.41-.41-.71-.28-1.28-.73-1.69-1.35-.22-.34-.39-.75-.48-1.21h14.5c.06-.28.12-.77.16-1.47.05-.7.07-1.32.07-1.87,0-1.83-.39-3.56-1.17-5.17ZM346.72,116.17c.07-1.11.41-1.97,1.01-2.56.69-.67,1.63-1.01,2.82-1.01,1.34,0,2.28.35,2.83,1.06.48.61.75,1.44.82,2.51h-7.48Z"/>
    </g>
  </g>
</svg>