<?xml version="1.0" encoding="UTF-8"?>
<svg id="Layer_2" data-name="Layer 2" xmlns="http://www.w3.org/2000/svg" viewBox="0 0 128.2 47.8">
  <defs>
    <style>
      .cls-1 {
        fill: none;
        stroke: #000;
        stroke-miterlimit: 10;
      }

      .cls-2 {
        fill: #7d431d;
      }

      .cls-3 {
        fill: #f9cc89;
      }
    </style>
  </defs>
  <g id="Layer_1-2" data-name="Layer 1">
    <path class="cls-1" d="M17.37,15.68s-.02.02-.03.04"/>
    <path class="cls-1" d="M38.84,22s0-.06-.02-.09"/>
    <polygon class="cls-3" points="24.73 14.35 31.1 14.35 27.3 9.65 20.86 9.65 24.73 14.35"/>
    <path class="cls-2" d="M28.21,45.46c-.18.05-.36.05-.53,0-.37-.09-.68-.38-.78-.78l-.89-2.52c.71-.15,1.4-.35,2.07-.59l.91,2.58c.15.58-.2,1.16-.78,1.31Z"/>
    <path class="cls-2" d="M14.65,44.46c-.16-.1-.28-.23-.37-.38-.19-.33-.19-.76.02-1.11l1.21-2.39c.6.41,1.22.77,1.86,1.09l-1.24,2.44c-.31.51-.98.66-1.48.34h0Z"/>
    <path class="cls-2" d="M33.68,47.66c-.17.09-.35.14-.52.14-.38,0-.74-.2-.94-.55l-3.29-5.9s-.03-.06-.05-.09c.67-.28,1.31-.6,1.93-.95l3.29,5.89c.29.52.1,1.18-.42,1.46Z"/>
    <path class="cls-2" d="M14.55,39.97c-.02.18-.1.36-.22.51l-4.74,5.93c-.25.32-.64.46-1.01.4-.18-.03-.35-.1-.5-.22-.47-.36-.55-1.04-.19-1.51l4.74-5.93c.07-.09.16-.17.25-.24.53.38,1.09.73,1.66,1.05h.01Z"/>
    <path class="cls-2" d="M38.86,27.49c-.19,1.14-.52,2.37-1.07,3.63-4.02,9.28-16.5,12.4-24.49,6.32-4.96-3.78-7.18-10.14-6.07-16.23.39-2.14,1.18-4.21,2.38-6.04.33-.5,3.55-4.49,3.97-3.98l3.77,4.53c-.83.85-3.91,2.86-3.96,8.78,0,.56.25,7.58,6.12,9.84,3.58,1.38,7.34.45,10.11-1.92,1.53-1.32,2.16-3.52,2.46-4.93h-5.12l-4.91-5.7c9.34.12,14.24.18,16.81.21.18,1.04.43,3.05.02,5.49h-.02Z"/>
    <path class="cls-3" d="M38.56,39.94l-1.87-2.04c4.16-3.82,6.55-9.25,6.55-14.9,0-11.16-9.08-20.23-20.23-20.23S2.76,11.84,2.76,23c0,4.94,1.8,9.7,5.07,13.4l-2.07,1.83C2.04,34.03,0,28.62,0,23,0,10.32,10.31,0,23,0s23,10.32,23,23c0,6.42-2.71,12.59-7.44,16.94Z"/>
    <path class="cls-2" d="M58.81,12.63c1.51.32,2.93.9,4.08,2.09l-1.6,2.27c-1.09-1.08-2.4-1.7-3.87-1.65-1.81.06-3.36,1.18-4,2.74-.71,1.74-.33,3.68,1.02,4.95,1.5,1.41,3.8,1.7,5.59.73.87-.47,1.42-1.25,1.56-2.18h-3.76v-2.61h6.81c.45,3.55-1.33,6.91-4.9,7.88-.75.2-1.42.27-2.2.27-3.69.01-6.85-2.65-7.31-6.33-.02-.16-.03-.31-.07-.39v-1.1c.34-3.46,2.82-6.09,6.2-6.67h2.45Z"/>
    <path class="cls-2" d="M84.11,12.83l6.62,14.26h-3.08l-.95-2.02h-5.64l-.91,2.02h-3.05l6.54-14.26h.47ZM85.59,22.6l-1.71-3.73-1.7,3.74h3.41Z"/>
    <polygon class="cls-2" points="128.2 13.26 128.2 13.51 124.06 21.14 124.05 27.3 121.27 27.31 121.27 21.19 116.95 13.27 120.03 13.26 122.66 18.1 125.27 13.26 128.2 13.26"/>
    <path class="cls-3" d="M111.44,34.62h-1.41c-.94-.26-1.68-.95-1.69-2v-4h1.13v3.89c0,.73.56,1.19,1.27,1.18s1.28-.43,1.28-1.17l.02-3.9h1.14l-.03,4.03c0,1.06-.77,1.73-1.71,1.98h0Z"/>
    <path class="cls-3" d="M85.52,34.77h-1.49c-.94-.28-1.67-.98-1.67-2.05v-3.95h1.12v3.88c.01.73.57,1.17,1.26,1.18s1.3-.39,1.3-1.12l.02-3.94h1.14l-.02,4.03c0,1.04-.75,1.68-1.65,1.97h-.01Z"/>
    <path class="cls-2" d="M77.15,26.96l-3.41.03-4.48-6.69-.02,6.68h-2.78v-14.04h4.86c.66,0,1.27.17,1.86.41,2.5,1.1,3.41,4.15,1.91,6.42-.46.7-1.09,1.19-1.9,1.51l3.96,5.68ZM71.4,19.09c.99-.12,1.58-.98,1.51-1.86s-.76-1.57-1.69-1.57h-1.97v3.46c.71,0,1.42.05,2.15-.03Z"/>
    <path class="cls-2" d="M97.87,13.02h3.03l-6.42,13.97c-.05.11-.09.19-.14.22-.07.03-.23-.05-.29-.12l-6.44-14.07h3.04l3.61,7.92,3.62-7.92h-.01Z"/>
    <polygon class="cls-2" points="112.89 27.15 110.12 27.15 110.12 15.82 106.48 15.81 106.49 13.11 116.55 13.11 116.55 15.81 112.89 15.82 112.89 27.15"/>
    <polygon class="cls-2" points="105 27.03 102.24 27.05 102.24 13.01 105 13.01 105 27.03"/>
    <polygon class="cls-3" points="98.88 34.53 97.71 34.54 95.29 30.6 95.27 34.54 94.13 34.54 94.13 28.61 95.31 28.61 97.72 32.52 97.74 28.62 98.88 28.61 98.88 34.53"/>
    <path class="cls-3" d="M117.8,34.56l-1.08-2.33-1.33-.02-.02,2.34h-1.15v-5.93c1,0,1.96-.02,2.93.02s1.68.85,1.63,1.8c-.03.68-.34,1.23-.97,1.53l1.22,2.57-1.24.02h.01ZM116.9,31.25c.57,0,.8-.57.75-.99-.06-.46-.45-.71-.95-.7h-1.33v1.73s1.53-.03,1.53-.03h0Z"/>
    <path class="cls-3" d="M91.97,34.55l-1.08-2.34h-1.34l-.02,2.33h-1.13v-5.93l2.91.03c1.02,0,1.72.84,1.65,1.81-.03.67-.37,1.22-.98,1.51l1.22,2.56-1.24.03h0ZM91.82,30.34c-.02-.48-.36-.77-.8-.77h-1.48v1.71l1.47-.02c.5,0,.83-.41.8-.92h.01Z"/>
    <polygon class="cls-3" points="124.01 31.91 121.38 31.92 121.37 33.6 124.41 33.61 124.41 34.54 120.22 34.54 120.22 28.62 124.31 28.61 124.32 29.56 121.38 29.57 121.38 30.96 124 30.97 124.01 31.91"/>
    <polygon class="cls-3" points="81.08 31.14 81.09 32.1 78.53 32.11 78.53 34.69 77.38 34.7 77.38 28.77 81.42 28.77 81.42 29.71 78.53 29.72 78.54 31.14 81.08 31.14"/>
    <polygon class="cls-3" points="105.45 34.53 104.29 34.54 104.29 29.58 102.48 29.56 102.48 28.61 107.26 28.61 107.27 29.56 105.45 29.57 105.45 34.53"/>
    <polygon class="cls-3" points="101.27 34.69 100.12 34.69 100.13 28.77 101.26 28.77 101.27 34.69"/>
  </g>
</svg>